<svg width="110" height="110" xmlns="http://www.w3.org/2000/svg">
 <defs>
  <linearGradient id="svg_6" x1="0.53125" y1="0" x2="0.519531" y2="1">
   <stop stop-color="#FFFA8D" offset="0"/>
   <stop stop-color="#ffaa56" stop-opacity="0.996094" offset="1"/>
  </linearGradient>
  <linearGradient id="svg_7" x1="0.5" y1="0" x2="0.5" y2="1">
   <stop stop-color="#ffaa56" stop-opacity="0.996094" offset="0"/>
   <stop stop-color="#ff00ff" stop-opacity="0.996094" offset="1"/>
  </linearGradient>
 </defs>
 <g>
  <title>background</title>
  <rect x="-1" y="-1" width="112" height="112" id="canvas_background" fill="none"/>
 </g>
 <g>
  <title>Layer 1</title>
  <path d="m55,4.23945c-27.6,0 -50,22.4 -50,50l100,0c0,-27.6 -22.4,-50 -50,-50z" id="svg_1" fill="url(#svg_6)" fill-opacity="0.53"/>
  <path d="m18.35,90.28026l73.3,0c0.6,-0.7 1.2,-1.3 1.8,-2l-76.9,0c0.6,0.7 1.1,1.3 1.8,2zm4.1,4l65,0c0.8,-0.6 1.5,-1.3 2.2,-2l-69.4,0c0.7,0.7 1.5,1.4 2.2,2zm-10.2,-12l85.4,0c0.4,-0.7 0.8,-1.3 1.2,-2l-87.8,0c0.4,0.7 0.8,1.3 1.2,2zm2.7,4l80,0c0.5,-0.7 1,-1.3 1.4,-2l-82.8,0c0.4,0.7 0.9,1.3 1.4,2zm12.9,12l54.2,0c1,-0.6 2,-1.3 2.9,-2l-60,0c0.9,0.7 1.9,1.4 2.9,2zm27.1,8c4.9,0 9.6,-0.7 14,-2l-28,0c4.4,1.3 9.1,2 14,2zm-19.6,-4l39.2,0c1.4,-0.6 2.8,-1.3 4.1,-2l-47.5,0c1.4,0.7 2.8,1.4 4.2,2zm-30,-40l99.3,0c0.1,-0.7 0.1,-1.3 0.2,-2l-99.7,0c0,0.7 0.1,1.3 0.2,2zm4.7,16l89.8,0c0.3,-0.7 0.6,-1.3 0.9,-2l-91.6,0c0.3,0.7 0.6,1.3 0.9,2zm-5.1,-22c0,0.7 0,1.3 0.1,2l99.9,0c0,-0.7 0.1,-1.3 0.1,-2l-100.1,0zm1,10l98,0c0.1,-0.7 0.2,-1.3 0.4,-2l-98.8,0c0.2,0.7 0.3,1.3 0.4,2zm2.4,8l93.3,0c0.3,-0.7 0.5,-1.3 0.7,-2l-94.8,0c0.3,0.7 0.5,1.3 0.8,2zm-1.4,-4l96,0c0.2,-0.7 0.4,-1.3 0.5,-2l-97,0c0.1,0.7 0.3,1.3 0.5,2z" id="svg_2" fill="url(#svg_7)"/>
 </g>
</svg>